<svg id="wiping-trash-container" xmlns="http://www.w3.org/2000/svg" viewBox="0 0 86.027 108.816">
  <defs>
    <style>
      .cls-1 {
      fill: gray;
      }
    </style>
  </defs>
  <g id="Group_22" data-name="Group 22" transform="translate(0)">
    <path id="Path_16" data-name="Path 16" class="cls-1" d="M166.613,550.339a16.743,16.743,0,1,0-8.411,2.27A16.759,16.759,0,0,0,166.613,550.339Z" transform="translate(-132.324 -443.792)"/>
    <path id="Path_17" data-name="Path 17" class="cls-1" d="M81.437,26.433h1.208c.006.056.01.113.018.169l6.722,50.667a21.091,21.091,0,0,1,30.342,29.3l25.268.092a5.316,5.316,0,0,0,5.288-4.607l10.151-75.444c.008-.06.013-.12.019-.179h1.208a2.9,2.9,0,1,0,0-5.8h-2.308c-2.014-4.811-9.113-8.886-18.885-11.214a19.8,19.8,0,0,0-3.54-3.942,24.329,24.329,0,0,0-30.746,0,19.8,19.8,0,0,0-3.541,3.942c-9.772,2.328-16.871,6.4-18.885,11.214H81.437a2.9,2.9,0,1,0,0,5.8Zm40.117-22.08a19.519,19.519,0,0,1,11.672,3.732,90.054,90.054,0,0,0-23.345,0A19.52,19.52,0,0,1,121.554,4.353Z" transform="translate(-78.535)"/>
  </g>
</svg>
