<svg xmlns="http://www.w3.org/2000/svg" viewBox="0 0 92.772 108.816">
  <defs>
    <style>
      .cls-1 {
      fill: gray;
      }
    </style>
  </defs>
  <g id="wiping-vacuum-tool" transform="translate(0)">
    <g id="Group_6" data-name="Group 6">
      <path id="Path_3" data-name="Path 3" class="cls-1" d="M96.729,25.15l.05.02,73.158,26.655a3.825,3.825,0,0,1,2.351,3.539V68.5a3.844,3.844,0,0,1-3.84,3.839h-.169l-9.864,1.142q.477,2.819.768,5.822l9.449-1.093A9.722,9.722,0,0,0,178.16,68.5V55.365a9.673,9.673,0,0,0-6.054-9l-.05-.02L98.9,19.693a3.824,3.824,0,0,1-2.351-3.539V16.04a3.844,3.844,0,0,1,3.839-3.839h64.122v5.742a2.936,2.936,0,0,0,2.936,2.936h.587a2.936,2.936,0,0,0,2.936-2.936V2.936A2.936,2.936,0,0,0,168.031,0h-.587a2.936,2.936,0,0,0-2.936,2.936V6.329H100.386a9.722,9.722,0,0,0-9.711,9.711v.114A9.673,9.673,0,0,0,96.729,25.15Z" transform="translate(-85.387)"/>
      <path id="Path_4" data-name="Path 4" class="cls-1" d="M108.773,269.325c-14.461,0-26.911,8.17-32.5,26.108h65C135.683,277.495,123.234,269.325,108.773,269.325Zm16.583,19.585H92.19a1.872,1.872,0,0,1-1.825-2.316c1.553-6.172,9.2-10.859,18.407-10.859s16.854,4.687,18.407,10.859A1.873,1.873,0,0,1,125.355,288.91Z" transform="translate(-73.1 -229.792)"/>
      <path id="Path_5" data-name="Path 5" class="cls-1" d="M69.912,483.627a18.359,18.359,0,0,1,13.509,30.8l1.088,0c2.3,0,4.675-.021,7.109-.021s4.812.021,7.109.021c16.276,0,28.53-1.067,28.53-18.315q0-4.928-.43-9.33-.291-3.033-.773-5.821-.334-1.946-.755-3.774H57.936a77.809,77.809,0,0,0-1.767,12.631A18.329,18.329,0,0,1,69.912,483.627Z" transform="translate(-55.946 -407.147)"/>
      <path id="Path_6" data-name="Path 6" class="cls-1" d="M68.616,578.966a13.966,13.966,0,1,0-13.1-9.114A13.936,13.936,0,0,0,68.616,578.966Z" transform="translate(-54.65 -470.15)"/>
    </g>
  </g>
</svg>
