<svg xmlns="http://www.w3.org/2000/svg" viewBox="0 0 63.248 67.393">
  <defs>
    <style>
      .cls-1 {
      fill: gray;
      }
    </style>
  </defs>
  <g id="wiping-swipe-for-floors" transform="translate(0)">
    <g id="Group_9" data-name="Group 9">
      <path id="Path_13" data-name="Path 13" class="cls-1" d="M507.112,1.246,491.347,31.814q.136.038.27.081a11.745,11.745,0,0,1,1.873.782,9.925,9.925,0,0,1,1.914,1.306L511.2,3.355a2.3,2.3,0,0,0-4.089-2.109Z" transform="translate(-448.21 0)"/>
      <path id="Path_14" data-name="Path 14" class="cls-1" d="M29.341,391.889a35.709,35.709,0,0,0,9.147,5.854,47.625,47.625,0,0,0,11.535,3.586l.018,0a1.563,1.563,0,0,0,.212.014H50.3c6.33-.207,11.264-2.315,14.664-6.266,4.472-5.2,6.088-13.01,5.774-19.727a8.214,8.214,0,0,0-2.119-5.287c-.1-.1-.2-.206-.311-.3a7.586,7.586,0,0,0-1.561-1.086,9.432,9.432,0,0,0-1.523-.638,5.012,5.012,0,0,0-.653-.162,5.1,5.1,0,0,0-.9-.081c-2.22,0-4.347,1.395-5.973,2.82a51.063,51.063,0,0,1-5.278,4.331,23.329,23.329,0,0,1-6.735,2.747,57.825,57.825,0,0,1-9.392,1.788,76.566,76.566,0,0,1-8.519.5q-1.695,0-3.383-.09l-.2-.011c-.036,0-.073,0-.109,0a1.563,1.563,0,0,0-1.477,2.071A23.772,23.772,0,0,0,29.341,391.889Zm-2.19-8.8h0l.489,0a81.56,81.56,0,0,0,9.105-.511c7.611-.866,13.816-2.719,18.513-5.518a.846.846,0,0,1,.433-.119.855.855,0,0,1,.412.106,80.948,80.948,0,0,0,10,4.8.855.855,0,0,1,.561.9,19.1,19.1,0,0,1-4.079,10.3c-2.758,3.2-6.831,4.93-12.109,5.156h-.049a1.18,1.18,0,0,1-.2-.018c-.532-.094-1.844-.347-3.6-.832.5-.222,1.021-.487,1.546-.784.47-.265.944-.555,1.413-.857,1.451-.936,2.856-2,3.95-2.873a.278.278,0,0,0-.283-.472,37.858,37.858,0,0,1-8.176,2.114c-.859.139-1.685.254-2.45.351-.894.113-1.7.2-2.378.263q-.264-.116-.529-.237a37.038,37.038,0,0,1-4.251-2.282,16.793,16.793,0,0,0,1.784-.272c.554-.113,1.115-.249,1.667-.4A43.682,43.682,0,0,0,43.14,390.5a.186.186,0,0,0-.085-.358c-1.924.185-4.592.2-6.871.169-.746-.011-1.451-.027-2.074-.045-.819-.023-1.5-.049-1.942-.067-.261-.219-.518-.44-.766-.665q-.482-.437-.931-.889c.463-.047.943-.121,1.43-.214.456-.087.918-.192,1.377-.308a42.228,42.228,0,0,0,4.756-1.547.186.186,0,0,0-.085-.358c-1.806.174-4.268.2-6.448.174-.538-.006-1.058-.015-1.547-.026-.544-.012-1.05-.026-1.5-.041a20.162,20.162,0,0,1-1.676-2.62A.42.42,0,0,1,27.151,383.093Z" transform="translate(-22.526 -333.953)"/>
      <circle id="Ellipse_9" data-name="Ellipse 9" class="cls-1" cx="3.693" cy="3.693" r="3.693" transform="translate(51.397 53.33)"/>
      <circle id="Ellipse_10" data-name="Ellipse 10" class="cls-1" cx="1.866" cy="1.866" r="1.866" transform="translate(45.26 63.613)"/>
      <circle id="Ellipse_11" data-name="Ellipse 11" class="cls-1" cx="1.866" cy="1.866" r="1.866" transform="translate(55.376 63.183)"/>
    </g>
  </g>
</svg>
