<svg id="wiping-sponge-tool" xmlns="http://www.w3.org/2000/svg" viewBox="0 0 101.096 57.974">
  <defs>
    <style>
      .cls-1 {
      fill: gray;
      }
    </style>
  </defs>
  <g id="Group_21" data-name="Group 21" transform="translate(0 0)">
    <path id="Path_15" data-name="Path 15" class="cls-1" d="M101.091,179.143c-.255-12.83-11.189-21.887-22.041-18.458-9.25,2.922-18.937,5.686-28.811,5.852-9.835.165-18.934-2.926-28.193-5.852C11.194,157.257.26,166.314,0,179.143q-.005.254,0,.508v18.581q0,.255,0,.508C.26,211.57,11.194,220.627,22.046,217.2c9.259-2.925,18.357-6.017,28.193-5.852,9.873.166,19.561,2.929,28.811,5.852,10.853,3.429,21.786-5.628,22.041-18.458q.005-.253,0-.508V179.652Q101.1,179.4,101.091,179.143ZM22.36,183.182c3.406,0,6.167,1.575,6.167,3.518s-2.761,3.518-6.167,3.518-6.167-1.575-6.167-3.518S18.954,183.182,22.36,183.182Zm-8.222-17.61a6.167,6.167,0,1,1-6.167,6.167A6.167,6.167,0,0,1,14.137,165.572Zm-6.79,29.5a3.4,3.4,0,1,1,3.4,3.4A3.4,3.4,0,0,1,7.347,195.074Zm14.1,15.752c-5.186,1.113-9.737.4-10.166-1.6s3.428-4.519,8.613-5.633,9.737-.4,10.166,1.6S26.637,209.713,21.451,210.826Zm15.822-11.953a3.4,3.4,0,1,1,3.4-3.4A3.395,3.395,0,0,1,37.273,198.873Zm4.537-14.753c-4.319,0-7.82-2.6-7.82-5.811s3.5-5.811,7.82-5.811,7.82,2.6,7.82,5.811S46.128,184.121,41.81,184.121ZM84.5,167.8a4.347,4.347,0,1,1-4.347,4.347A4.347,4.347,0,0,1,84.5,167.8ZM59.846,201.645a6.167,6.167,0,1,1,6.167-6.167A6.166,6.166,0,0,1,59.846,201.645Zm3.395-21.76a3.4,3.4,0,1,1,3.4-3.4A3.4,3.4,0,0,1,63.241,179.885Zm10.2,8.059a3.4,3.4,0,1,1,3.4-3.4A3.4,3.4,0,0,1,73.444,187.944ZM85.036,209.85a7.388,7.388,0,1,1,7.388-7.388A7.388,7.388,0,0,1,85.036,209.85ZM89.113,188.8a3.4,3.4,0,1,1,3.4-3.4A3.4,3.4,0,0,1,89.113,188.8Z" transform="translate(0 -159.955)"/>
  </g>
</svg>
