<svg xmlns="http://www.w3.org/2000/svg" viewBox="0 0 101.096 108.816">
  <defs>
    <style>
      .cls-1 {
        fill: gray;
      }
    </style>
  </defs>
  <g id="Group_5" data-name="Group 5" transform="translate(0)">
    <circle id="Ellipse_1" data-name="Ellipse 1" class="cls-1" cx="4.61" cy="4.61" r="4.61" transform="translate(22.322 62.932)"/>
    <circle id="Ellipse_2" data-name="Ellipse 2" class="cls-1" cx="4.61" cy="4.61" r="4.61" transform="translate(48.397 62.932)"/>
    <path id="Path_2" data-name="Path 2" class="cls-1" d="M66.573,108.816a38.147,38.147,0,0,0,28.34-12.823,45.255,45.255,0,0,0,11.629-30.68,47.3,47.3,0,0,0-1.59-12.209c.269.058.539.113.813.163a26.327,26.327,0,0,1,9.174,3.212,9.374,9.374,0,0,1,2.97,2.7,5,5,0,0,0,9.042-1.475,25.639,25.639,0,0,0,.724-7.222,20.535,20.535,0,0,0-3.009-9.99A22.93,22.93,0,0,0,114.048,31.7a24.66,24.66,0,0,0,2.667-3.151,22.622,22.622,0,0,0,3.544-7.711,25.673,25.673,0,0,0,.319-10.267,4.946,4.946,0,0,0-1.853-3.125,5.06,5.06,0,0,0-3.094-1.062,4.991,4.991,0,0,0-2.708.8,25.647,25.647,0,0,1-10.649,3.563c-5.588.674-8.812,5.123-10.743,8.428l-.022-.011A25.8,25.8,0,0,0,40.785,25c-.315.324-.625.653-.927.991a5.483,5.483,0,0,0-1.238,3.079c-.1.537-.246,1.277-.42,2.2-.294,1.562-.585,3.136-.588,3.152v.008a4.934,4.934,0,0,0-.078.985A45.341,45.341,0,0,0,26.6,65.313a45.255,45.255,0,0,0,11.629,30.68A38.148,38.148,0,0,0,66.573,108.816Zm25.79-83.745a.414.414,0,0,0,.316.182c1.408,0,3.658-9.409,10.116-10.188a29.976,29.976,0,0,0,12.484-4.224.661.661,0,0,1,1,.423c2.094,13.016-6.868,19.269-10.592,21.272a.588.588,0,0,0,.2,1.1c19.657,4.382,18,18.343,16.839,23.029a.61.61,0,0,1-.611.45.647.647,0,0,1-.551-.294c-1.36-2.1-5.147-6.031-15.017-7.834a21.133,21.133,0,0,1-3.232-.851C93.55,44.694,91.706,35.3,91.441,33.511a.592.592,0,0,0-.146-.305.652.652,0,0,0-.185-.145,42.931,42.931,0,0,0-20-4.553c-13.466,0-25.485,5-28.158,7.268a.648.648,0,0,1-1.062-.562s.089-.484.22-1.185c.2-1.052.484-2.592.7-3.711.157-.815.276-1.407.293-1.426,6.857-7.684,16.646-10.139,25.705-10.139,11.584,0,21.973,4.016,23.5,6.248C92.329,25.027,92.346,25.049,92.363,25.071ZM35.85,60.791c2.27-2.356,4.481-4.773,6.583-7.28,3.562-4.248,8.256-9.59,9.053-15.306.8-5.748,16.029,15.322,25.929,17.443C86.5,57.6,92.81,62.526,93.785,72.616a.976.976,0,0,0,1.8.424,32.7,32.7,0,0,0,4.143-10.228.756.756,0,0,1,1.423-.157c.124.264.246.535.367.808q.04.919.041,1.849c0,21.242-15.7,38.524-34.99,38.524-19.185,0-34.383-17.56-34.925-36.178C31.553,64.417,33.79,62.929,35.85,60.791Z" transform="translate(-26.604)"/>
  </g>
</svg>
