<svg xmlns="http://www.w3.org/2000/svg" viewBox="0 0 95.468 108.816">
  <defs>
    <style>
      .cls-1 {
      fill: gray;
      }
    </style>
  </defs>
  <g id="wiping-tray-tool" transform="translate(0)">
    <g id="Group_23" data-name="Group 23" transform="translate(0)">
      <path id="Path_18" data-name="Path 18" class="cls-1" d="M155.774,6.861a32.316,32.316,0,0,0-40.87.859,25.227,25.227,0,0,0-8.795,18.234h4.271c.423-12.021,11.684-21.686,25.467-21.686a27.221,27.221,0,0,1,17.9,6.461l.762.661.994-.169a29.109,29.109,0,0,1,4.865-.41c11.166,0,20.676,6.343,24.111,15.143h4.533a26.059,26.059,0,0,0-7.7-11.69,31.412,31.412,0,0,0-20.943-7.72A33.422,33.422,0,0,0,155.774,6.861Z" transform="translate(-97.69)"/>
      <path id="Path_19" data-name="Path 19" class="cls-1" d="M127.752,285.071l14.6-75.116a2.1,2.1,0,0,0-2.057-2.495H54.222a2.1,2.1,0,0,0-2.057,2.495l3.077,15.834.389,2,.179.919.213,1.1q-.784.7-1.533,1.435-.776.763-1.506,1.568a27.662,27.662,0,0,0-3.7,5.1,17.3,17.3,0,0,0-.03,17.414,19.135,19.135,0,0,0,9.606,7.735c.639.253,1.289.479,1.943.678q.949.289,1.909.5c.268.06.537.117.8.169a31.857,31.857,0,0,0,6.005.542,57.442,57.442,0,0,0,12.355-1.581,64.043,64.043,0,0,0,34.653-21.187,5.978,5.978,0,0,0,.865.063q.246,0,.495-.021a5.921,5.921,0,0,0-.492-11.821c-.167,0-.336.007-.506.021a5.905,5.905,0,0,0-5.249,7.309c.041.168.087.334.142.5a58.478,58.478,0,0,1-24.44,17.094,52.218,52.218,0,0,1-15.9,3.371c-.718.043-1.41.066-2.088.066a25.2,25.2,0,0,1-6.471-.82,14.8,14.8,0,0,1-1.489-.466,14.412,14.412,0,0,1-1.989-.916,15.534,15.534,0,0,1-2.082-1.393q-.318-.251-.628-.519c-.231-.2-.45-.413-.669-.625-.008-.007-.361-.392-.409-.437a15.455,15.455,0,0,1-.99-1.309c-.17-.249-.324-.507-.478-.766l-.074-.124c-.021-.048-.055-.123-.108-.234a12.423,12.423,0,0,1-.72-1.98l-.039-.135c-.007-.058-.021-.155-.048-.31-.057-.331-.086-.666-.115-1s-.032-.668-.035-1c0-.092,0-.163,0-.218.017-.208.037-.416.063-.623a15.221,15.221,0,0,1,.384-1.981v0s.193-.63.191-.652c.137-.39.294-.773.455-1.153q.222-.523.478-1.022a17.829,17.829,0,0,1,1.373-2.254,21.738,21.738,0,0,1,1.457-1.821l.436,2.246.473,2.433.332,1.709h0l1.887,9.712a10.892,10.892,0,0,0,3.22,1.394,21.671,21.671,0,0,0,5.59.709c.589,0,1.2-.02,1.877-.059A48.793,48.793,0,0,0,86.111,252a55.872,55.872,0,0,0,12.523-6.54,54.424,54.424,0,0,0,8.852-7.72q.238-.258.474-.519c0-.029-.005-.059-.008-.088a9.484,9.484,0,0,1,8.645-10.242c.267-.023.538-.034.805-.034a9.449,9.449,0,0,1,6.39,2.485c.086.079.169.16.252.242a9.475,9.475,0,0,1-5.85,16.194l-.06,0a67.779,67.779,0,0,1-15.349,12.858,65.719,65.719,0,0,1-20.132,8.209,60.145,60.145,0,0,1-13.126,1.666,36.033,36.033,0,0,1-6.078-.5l3.315,17.058a2.1,2.1,0,0,0,2.057,1.7h56.874A2.1,2.1,0,0,0,127.752,285.071Z" transform="translate(-46.921 -177.95)"/>
    </g>
  </g>
</svg>
