<svg xmlns="http://www.w3.org/2000/svg" viewBox="0 0 101.096 100.416">
  <defs>
    <style>
      .cls-1 {
      fill: gray;
      }
    </style>
  </defs>
  <g id="leaves" transform="translate(0 0)">
    <g id="Group_7" data-name="Group 7">
      <path id="Path_7" data-name="Path 7" class="cls-1" d="M18.752,42.985a40.621,40.621,0,0,0,3.437,2.993l.041-.041.055-.054A47.129,47.129,0,0,1,38.108,35.557l.07-.027.069-.027c-.293-.266-.589-.532-.891-.8a122.8,122.8,0,0,0-13.485-9.985A98.374,98.374,0,0,1,37.92,32.71q1.415.917,2.724,1.946l.007,0,.07-.022.074-.023a82.647,82.647,0,0,1,10.547-2.55l.067-.012.07-.012q-.29-.583-.6-1.154a32.026,32.026,0,0,0-11.6-12.416C33.158,14.828,26.413,12.78,19.891,10.8c-1.357-.412-2.76-.838-4.138-1.273C11.613,8.22,6.3,6.276,1.915,2.8A1.147,1.147,0,0,0,1.2,2.544a1.207,1.207,0,0,0-1,.576A1.31,1.31,0,0,0,.135,4.4,91.188,91.188,0,0,1,4.57,16.835c1.557,5.141,3.168,10.458,5.9,15.287A48.338,48.338,0,0,0,18.752,42.985Z" transform="translate(0 -2.544)"/>
      <path id="Path_8" data-name="Path 8" class="cls-1" d="M137.9,189.573a1.568,1.568,0,0,0-.672.156c-6.659,3.141-14.3,4.356-21.48,4.991-8.22.726-16.44,1.127-24.523,2.484l-.07.012-.066.011a83.763,83.763,0,0,0-8.954,1.994l-.068.02-.075.022q-.991.284-1.978.6-.368.118-.734.242l-.07.024-.07.025a43.2,43.2,0,0,0-15.73,9.713l-.053.051-.046.045a51.4,51.4,0,0,0-13.931,24.061,1.558,1.558,0,0,0,1.513,1.947,1.517,1.517,0,0,0,.973-.358c8.1-6.659,16.352-13.16,26.322-16.77,1.682-.609,3.382-1.22,5.1-1.817l.1-.035.106-.037c2.02-.7,4.059-1.381,6.113-2.014l.057-.018.075-.023a91.53,91.53,0,0,1,12.522-3.01c-4,1.469-7.989,2.976-11.91,4.612l-.072.03-.054.023q-1.9.792-3.768,1.63l-.081.036-.079.035c-2.591,1.163-5.143,2.4-7.638,3.73a80.437,80.437,0,0,0-16.008,11.023C54.063,240.725,47,250.935,44.327,262.274a2.172,2.172,0,0,0,1.5,2.635,2.054,2.054,0,0,0,.544.073,2.138,2.138,0,0,0,2.09-1.568,44.319,44.319,0,0,1,7.015-15.538c.177-.045.36-.094.551-.15,9.276-2.73,19.755-1.07,29.285-2.9,12.514-2.406,23.544-9.51,32.04-18.861,9.238-10.167,13.48-23.171,21.759-33.874A1.563,1.563,0,0,0,137.9,189.573Z" transform="translate(-38.346 -164.566)"/>
    </g>
  </g>
</svg>
